{
	"asset":{
		"generator":"Khronos glTF Blender I/O v4.4.56",
		"version":"2.0"
	},
	"scene":0,
	"scenes":[
		{
			"extras":{
				"blenderkitUI":{
					"assetbar_on":0,
					"turn_off":0
				},
				"blenderkit_models":{},
				"uuid":"158a3ae3-c349-4120-a1f0-ddae3cdea88e",
				"assets reported":{},
				"dream_textures_prompt":{},
				"ypui":{
					"expand_channels":0,
					"expand_mask_channels":0,
					"show_bake_targets":0,
					"show_channels":1,
					"show_layers":1,
					"show_materials":0,
					"show_object":0,
					"show_stats":0,
					"show_support":0,
					"show_test":0,
					"tree_name":""
				}
			},
			"name":"Scene",
			"nodes":[
				0
			]
		}
	],
	"nodes":[
		{
			"mesh":0,
			"name":"Oven"
		}
	],
	"materials":[
		{
			"doubleSided":true,
			"extras":{
				"yp":{
					"active_ypaint_node":""
				}
			},
			"name":"Oven",
			"pbrMetallicRoughness":{
				"baseColorFactor":[
					0.800000011920929,
					0.800000011920929,
					0.800000011920929,
					1
				],
				"metallicFactor":0,
				"roughnessFactor":0.5
			}
		}
	],
	"meshes":[
		{
			"name":"Cube.001",
			"primitives":[
				{
					"attributes":{
						"POSITION":0,
						"NORMAL":1,
						"TEXCOORD_0":2,
						"TANGENT":3
					},
					"indices":4,
					"material":0
				}
			]
		}
	],
	"accessors":[
		{
			"bufferView":0,
			"componentType":5126,
			"count":4676,
			"max":[
				0.38692137598991394,
				1.2135013341903687,
				0.5581992864608765
			],
			"min":[
				-0.38692131638526917,
				1.9010576579603367e-06,
				-0.1281837671995163
			],
			"type":"VEC3"
		},
		{
			"bufferView":1,
			"componentType":5126,
			"count":4676,
			"type":"VEC3"
		},
		{
			"bufferView":2,
			"componentType":5126,
			"count":4676,
			"type":"VEC2"
		},
		{
			"bufferView":3,
			"componentType":5126,
			"count":4676,
			"type":"VEC4"
		},
		{
			"bufferView":4,
			"componentType":5123,
			"count":18894,
			"type":"SCALAR"
		}
	],
	"bufferViews":[
		{
			"buffer":0,
			"byteLength":56112,
			"byteOffset":0,
			"target":34962
		},
		{
			"buffer":0,
			"byteLength":56112,
			"byteOffset":56112,
			"target":34962
		},
		{
			"buffer":0,
			"byteLength":37408,
			"byteOffset":112224,
			"target":34962
		},
		{
			"buffer":0,
			"byteLength":74816,
			"byteOffset":149632,
			"target":34962
		},
		{
			"buffer":0,
			"byteLength":37788,
			"byteOffset":224448,
			"target":34963
		}
	],
	"buffers":[
		{
			"byteLength":262236,
			"uri":"Oven-2f451a3b512d026e4776c559ff4b5390.bin"
		}
	]
}
