{
	"asset":{
		"generator":"Khronos glTF Blender I/O v4.4.56",
		"version":"2.0"
	},
	"scene":0,
	"scenes":[
		{
			"extras":{
				"blenderkitUI":{
					"assetbar_on":0,
					"turn_off":0
				},
				"blenderkit_models":{},
				"uuid":"158a3ae3-c349-4120-a1f0-ddae3cdea88e",
				"assets reported":{},
				"dream_textures_prompt":{},
				"ypui":{
					"expand_channels":0,
					"expand_mask_channels":0,
					"show_bake_targets":0,
					"show_channels":1,
					"show_layers":1,
					"show_materials":0,
					"show_object":0,
					"show_stats":0,
					"show_support":0,
					"show_test":0,
					"tree_name":""
				}
			},
			"name":"Scene",
			"nodes":[
				0
			]
		}
	],
	"nodes":[
		{
			"mesh":0,
			"name":"Refrigerator"
		}
	],
	"materials":[
		{
			"doubleSided":true,
			"extras":{
				"yp":{
					"active_ypaint_node":""
				}
			},
			"name":"Refrigerator",
			"pbrMetallicRoughness":{
				"baseColorFactor":[
					0.800000011920929,
					0.800000011920929,
					0.800000011920929,
					1
				],
				"metallicFactor":0,
				"roughnessFactor":0.5
			}
		}
	],
	"meshes":[
		{
			"name":"Cube.007",
			"primitives":[
				{
					"attributes":{
						"POSITION":0,
						"NORMAL":1,
						"TEXCOORD_0":2
					},
					"indices":3,
					"material":0
				}
			]
		}
	],
	"accessors":[
		{
			"bufferView":0,
			"componentType":5126,
			"count":3146,
			"max":[
				0.4173016846179962,
				1.8413419723510742,
				0.5761809945106506
			],
			"min":[
				-0.41730162501335144,
				0.011328339576721191,
				-0.12896010279655457
			],
			"type":"VEC3"
		},
		{
			"bufferView":1,
			"componentType":5126,
			"count":3146,
			"type":"VEC3"
		},
		{
			"bufferView":2,
			"componentType":5126,
			"count":3146,
			"type":"VEC2"
		},
		{
			"bufferView":3,
			"componentType":5123,
			"count":11532,
			"type":"SCALAR"
		}
	],
	"bufferViews":[
		{
			"buffer":0,
			"byteLength":37752,
			"byteOffset":0,
			"target":34962
		},
		{
			"buffer":0,
			"byteLength":37752,
			"byteOffset":37752,
			"target":34962
		},
		{
			"buffer":0,
			"byteLength":25168,
			"byteOffset":75504,
			"target":34962
		},
		{
			"buffer":0,
			"byteLength":23064,
			"byteOffset":100672,
			"target":34963
		}
	],
	"buffers":[
		{
			"byteLength":123736,
			"uri":"Refrigerator-798cc2cd0e752bc224e8ca9a961abc1a.bin"
		}
	]
}
