{
	"asset":{
		"generator":"Khronos glTF Blender I/O v4.4.56",
		"version":"2.0"
	},
	"extensionsUsed":[
		"KHR_materials_specular"
	],
	"scene":0,
	"scenes":[
		{
			"extras":{
				"blenderkitUI":{
					"assetbar_on":0,
					"turn_off":0
				},
				"blenderkit_models":{},
				"uuid":"158a3ae3-c349-4120-a1f0-ddae3cdea88e",
				"assets reported":{},
				"dream_textures_prompt":{},
				"ypui":{
					"expand_channels":0,
					"expand_mask_channels":0,
					"show_bake_targets":0,
					"show_channels":1,
					"show_layers":1,
					"show_materials":0,
					"show_object":0,
					"show_stats":0,
					"show_support":0,
					"show_test":0,
					"tree_name":""
				}
			},
			"name":"Scene",
			"nodes":[
				0
			]
		}
	],
	"nodes":[
		{
			"mesh":0,
			"name":"Roof_1"
		}
	],
	"materials":[
		{
			"doubleSided":true,
			"extensions":{
				"KHR_materials_specular":{
					"specularFactor":0
				}
			},
			"extras":{
				"yp":{
					"active_ypaint_node":""
				}
			},
			"name":"Roof",
			"pbrMetallicRoughness":{
				"baseColorFactor":[
					0.33928200602531433,
					0.15766865015029907,
					0.13636137545108795,
					1
				],
				"metallicFactor":0
			}
		}
	],
	"meshes":[
		{
			"name":"Cube.003",
			"primitives":[
				{
					"attributes":{
						"POSITION":0,
						"NORMAL":1,
						"TEXCOORD_0":2
					},
					"indices":3,
					"material":0
				}
			]
		}
	],
	"accessors":[
		{
			"bufferView":0,
			"componentType":5126,
			"count":9101,
			"max":[
				0.15724249184131622,
				2.6710848808288574,
				0.7250000238418579
			],
			"min":[
				-2.999999523162842,
				-0.10804218798875809,
				-0.7284393906593323
			],
			"type":"VEC3"
		},
		{
			"bufferView":1,
			"componentType":5126,
			"count":9101,
			"type":"VEC3"
		},
		{
			"bufferView":2,
			"componentType":5126,
			"count":9101,
			"type":"VEC2"
		},
		{
			"bufferView":3,
			"componentType":5123,
			"count":24789,
			"type":"SCALAR"
		}
	],
	"bufferViews":[
		{
			"buffer":0,
			"byteLength":109212,
			"byteOffset":0,
			"target":34962
		},
		{
			"buffer":0,
			"byteLength":109212,
			"byteOffset":109212,
			"target":34962
		},
		{
			"buffer":0,
			"byteLength":72808,
			"byteOffset":218424,
			"target":34962
		},
		{
			"buffer":0,
			"byteLength":49578,
			"byteOffset":291232,
			"target":34963
		}
	],
	"buffers":[
		{
			"byteLength":340812,
			"uri":"Roof_1-28c6b61a434ebcdb9d383f40d91a306e.bin"
		}
	]
}
