{
	"asset":{
		"generator":"Khronos glTF Blender I/O v4.4.56",
		"version":"2.0"
	},
	"scene":0,
	"scenes":[
		{
			"extras":{
				"blenderkitUI":{
					"assetbar_on":0,
					"turn_off":0
				},
				"blenderkit_models":{},
				"uuid":"158a3ae3-c349-4120-a1f0-ddae3cdea88e",
				"assets reported":{},
				"dream_textures_prompt":{},
				"ypui":{
					"expand_channels":0,
					"expand_mask_channels":0,
					"show_bake_targets":0,
					"show_channels":1,
					"show_layers":1,
					"show_materials":0,
					"show_object":0,
					"show_stats":0,
					"show_support":0,
					"show_test":0,
					"tree_name":""
				}
			},
			"name":"Scene",
			"nodes":[
				0
			]
		}
	],
	"nodes":[
		{
			"mesh":0,
			"name":"Stairs"
		}
	],
	"materials":[
		{
			"doubleSided":true,
			"extras":{
				"yp":{
					"active_ypaint_node":""
				}
			},
			"name":"Stairs_Base",
			"pbrMetallicRoughness":{
				"baseColorFactor":[
					0.800000011920929,
					0.800000011920929,
					0.800000011920929,
					1
				],
				"metallicFactor":0,
				"roughnessFactor":0.5
			}
		}
	],
	"meshes":[
		{
			"name":"Cube.007",
			"primitives":[
				{
					"attributes":{
						"POSITION":0,
						"NORMAL":1,
						"TEXCOORD_0":2
					},
					"indices":3,
					"material":0
				}
			]
		}
	],
	"accessors":[
		{
			"bufferView":0,
			"componentType":5126,
			"count":1278,
			"max":[
				0.7608498930931091,
				2.551692247390747,
				3.0257718563079834
			],
			"min":[
				-0.7608498930931091,
				0,
				-0.024999920278787613
			],
			"type":"VEC3"
		},
		{
			"bufferView":1,
			"componentType":5126,
			"count":1278,
			"type":"VEC3"
		},
		{
			"bufferView":2,
			"componentType":5126,
			"count":1278,
			"type":"VEC2"
		},
		{
			"bufferView":3,
			"componentType":5123,
			"count":3834,
			"type":"SCALAR"
		}
	],
	"bufferViews":[
		{
			"buffer":0,
			"byteLength":15336,
			"byteOffset":0,
			"target":34962
		},
		{
			"buffer":0,
			"byteLength":15336,
			"byteOffset":15336,
			"target":34962
		},
		{
			"buffer":0,
			"byteLength":10224,
			"byteOffset":30672,
			"target":34962
		},
		{
			"buffer":0,
			"byteLength":7668,
			"byteOffset":40896,
			"target":34963
		}
	],
	"buffers":[
		{
			"byteLength":48564,
			"uri":"Stairs_1-85dc6fe091e438dc1da87027ff8037d9.bin"
		}
	]
}
