{
	"asset":{
		"generator":"Khronos glTF Blender I/O v4.4.56",
		"version":"2.0"
	},
	"scene":0,
	"scenes":[
		{
			"extras":{
				"blenderkitUI":{
					"assetbar_on":0,
					"turn_off":0
				},
				"blenderkit_models":{},
				"uuid":"158a3ae3-c349-4120-a1f0-ddae3cdea88e",
				"assets reported":{},
				"dream_textures_prompt":{},
				"ypui":{
					"expand_channels":0,
					"expand_mask_channels":0,
					"show_bake_targets":0,
					"show_channels":1,
					"show_layers":1,
					"show_materials":0,
					"show_object":0,
					"show_stats":0,
					"show_support":0,
					"show_test":0,
					"tree_name":""
				}
			},
			"name":"Scene",
			"nodes":[
				0
			]
		}
	],
	"nodes":[
		{
			"mesh":0,
			"name":"Banister"
		}
	],
	"materials":[
		{
			"doubleSided":true,
			"extras":{
				"yp":{
					"active_ypaint_node":""
				}
			},
			"name":"Stairs_Banister",
			"pbrMetallicRoughness":{
				"baseColorFactor":[
					0.800000011920929,
					0.800000011920929,
					0.800000011920929,
					1
				],
				"metallicFactor":0,
				"roughnessFactor":0.5
			}
		}
	],
	"meshes":[
		{
			"name":"Cube.001",
			"primitives":[
				{
					"attributes":{
						"POSITION":0,
						"NORMAL":1,
						"TEXCOORD_0":2,
						"TANGENT":3
					},
					"indices":4,
					"material":0
				}
			]
		}
	],
	"accessors":[
		{
			"bufferView":0,
			"componentType":5126,
			"count":799,
			"max":[
				0.0856940746307373,
				3.742583751678467,
				2.9205315113067627
			],
			"min":[
				-0.08569448441267014,
				0.19892321527004242,
				-0.019228002056479454
			],
			"type":"VEC3"
		},
		{
			"bufferView":1,
			"componentType":5126,
			"count":799,
			"type":"VEC3"
		},
		{
			"bufferView":2,
			"componentType":5126,
			"count":799,
			"type":"VEC2"
		},
		{
			"bufferView":3,
			"componentType":5126,
			"count":799,
			"type":"VEC4"
		},
		{
			"bufferView":4,
			"componentType":5123,
			"count":2130,
			"type":"SCALAR"
		}
	],
	"bufferViews":[
		{
			"buffer":0,
			"byteLength":9588,
			"byteOffset":0,
			"target":34962
		},
		{
			"buffer":0,
			"byteLength":9588,
			"byteOffset":9588,
			"target":34962
		},
		{
			"buffer":0,
			"byteLength":6392,
			"byteOffset":19176,
			"target":34962
		},
		{
			"buffer":0,
			"byteLength":12784,
			"byteOffset":25568,
			"target":34962
		},
		{
			"buffer":0,
			"byteLength":4260,
			"byteOffset":38352,
			"target":34963
		}
	],
	"buffers":[
		{
			"byteLength":42612,
			"uri":"Stairs_1_Banister-9744ec1a5a2a5464f041379cd2f1a0d4.bin"
		}
	]
}
