{
	"asset":{
		"generator":"Khronos glTF Blender I/O v4.4.56",
		"version":"2.0"
	},
	"scene":0,
	"scenes":[
		{
			"extras":{
				"blenderkitUI":{
					"assetbar_on":0,
					"turn_off":0
				},
				"blenderkit_models":{},
				"uuid":"158a3ae3-c349-4120-a1f0-ddae3cdea88e",
				"assets reported":{},
				"dream_textures_prompt":{},
				"ypui":{
					"expand_channels":0,
					"expand_mask_channels":0,
					"show_bake_targets":0,
					"show_channels":1,
					"show_layers":1,
					"show_materials":0,
					"show_object":0,
					"show_stats":0,
					"show_support":0,
					"show_test":0,
					"tree_name":""
				}
			},
			"name":"Scene",
			"nodes":[
				1
			]
		}
	],
	"nodes":[
		{
			"mesh":0,
			"name":"Roof_1.001",
			"rotation":[
				0,
				-0.7071067094802856,
				0,
				0.7071068286895752
			],
			"scale":[
				1,
				0.9299899935722351,
				1
			],
			"translation":[
				-0.233585387468338,
				0,
				1.5
			]
		},
		{
			"children":[
				0
			],
			"mesh":1,
			"name":"Wall_1_Triangle.001"
		}
	],
	"materials":[
		{
			"doubleSided":true,
			"extras":{
				"yp":{
					"active_ypaint_node":""
				}
			},
			"name":"Wall",
			"pbrMetallicRoughness":{
				"baseColorFactor":[
					0.5149139165878296,
					0.6172071695327759,
					0.7991032004356384,
					1
				],
				"metallicFactor":0,
				"roughnessFactor":0.5
			}
		},
		{
			"doubleSided":true,
			"extras":{
				"yp":{
					"active_ypaint_node":""
				}
			},
			"name":"Wall_Ext",
			"pbrMetallicRoughness":{
				"baseColorFactor":[
					0.800000011920929,
					0.800000011920929,
					0.800000011920929,
					1
				],
				"metallicFactor":0,
				"roughnessFactor":0.5
			}
		}
	],
	"meshes":[
		{
			"name":"Cube.006",
			"primitives":[
				{
					"attributes":{
						"POSITION":0,
						"NORMAL":1,
						"TEXCOORD_0":2,
						"TANGENT":3
					},
					"indices":4
				}
			]
		},
		{
			"name":"Cube.005",
			"primitives":[
				{
					"attributes":{
						"POSITION":5,
						"NORMAL":6,
						"TEXCOORD_0":7,
						"TEXCOORD_1":8,
						"TEXCOORD_2":9,
						"TEXCOORD_3":10,
						"TEXCOORD_4":11
					},
					"indices":12,
					"material":0
				},
				{
					"attributes":{
						"POSITION":13,
						"NORMAL":14,
						"TEXCOORD_0":15,
						"TEXCOORD_1":16,
						"TEXCOORD_2":17,
						"TEXCOORD_3":18,
						"TEXCOORD_4":19
					},
					"indices":20,
					"material":1
				}
			]
		}
	],
	"accessors":[
		{
			"bufferView":0,
			"componentType":5126,
			"count":53,
			"max":[
				2.180736541748047,
				5.556161880493164,
				0.7250000238418579
			],
			"min":[
				-2.7881529331207275,
				-0.9158565998077393,
				-0.7284393906593323
			],
			"type":"VEC3"
		},
		{
			"bufferView":1,
			"componentType":5126,
			"count":53,
			"type":"VEC3"
		},
		{
			"bufferView":2,
			"componentType":5126,
			"count":53,
			"type":"VEC2"
		},
		{
			"bufferView":3,
			"componentType":5126,
			"count":53,
			"type":"VEC4"
		},
		{
			"bufferView":4,
			"componentType":5123,
			"count":84,
			"type":"SCALAR"
		},
		{
			"bufferView":5,
			"componentType":5126,
			"count":29,
			"max":[
				0.0750000923871994,
				2.5500001907348633,
				1.5464258193969727
			],
			"min":[
				-0.0750000923871994,
				0,
				-0.5749641060829163
			],
			"type":"VEC3"
		},
		{
			"bufferView":6,
			"componentType":5126,
			"count":29,
			"type":"VEC3"
		},
		{
			"bufferView":7,
			"componentType":5126,
			"count":29,
			"type":"VEC2"
		},
		{
			"bufferView":8,
			"componentType":5126,
			"count":29,
			"type":"VEC2"
		},
		{
			"bufferView":9,
			"componentType":5126,
			"count":29,
			"type":"VEC2"
		},
		{
			"bufferView":10,
			"componentType":5126,
			"count":29,
			"type":"VEC2"
		},
		{
			"bufferView":11,
			"componentType":5126,
			"count":29,
			"type":"VEC2"
		},
		{
			"bufferView":12,
			"componentType":5123,
			"count":51,
			"type":"SCALAR"
		},
		{
			"bufferView":13,
			"componentType":5126,
			"count":44,
			"max":[
				0.0750000923871994,
				2.5500001907348633,
				1.5464258193969727
			],
			"min":[
				-0.0750000923871994,
				-3.5762786865234375e-07,
				-0.5749652981758118
			],
			"type":"VEC3"
		},
		{
			"bufferView":14,
			"componentType":5126,
			"count":44,
			"type":"VEC3"
		},
		{
			"bufferView":15,
			"componentType":5126,
			"count":44,
			"type":"VEC2"
		},
		{
			"bufferView":16,
			"componentType":5126,
			"count":44,
			"type":"VEC2"
		},
		{
			"bufferView":17,
			"componentType":5126,
			"count":44,
			"type":"VEC2"
		},
		{
			"bufferView":18,
			"componentType":5126,
			"count":44,
			"type":"VEC2"
		},
		{
			"bufferView":19,
			"componentType":5126,
			"count":44,
			"type":"VEC2"
		},
		{
			"bufferView":20,
			"componentType":5123,
			"count":78,
			"type":"SCALAR"
		}
	],
	"bufferViews":[
		{
			"buffer":0,
			"byteLength":636,
			"byteOffset":0,
			"target":34962
		},
		{
			"buffer":0,
			"byteLength":636,
			"byteOffset":636,
			"target":34962
		},
		{
			"buffer":0,
			"byteLength":424,
			"byteOffset":1272,
			"target":34962
		},
		{
			"buffer":0,
			"byteLength":848,
			"byteOffset":1696,
			"target":34962
		},
		{
			"buffer":0,
			"byteLength":168,
			"byteOffset":2544,
			"target":34963
		},
		{
			"buffer":0,
			"byteLength":348,
			"byteOffset":2712,
			"target":34962
		},
		{
			"buffer":0,
			"byteLength":348,
			"byteOffset":3060,
			"target":34962
		},
		{
			"buffer":0,
			"byteLength":232,
			"byteOffset":3408,
			"target":34962
		},
		{
			"buffer":0,
			"byteLength":232,
			"byteOffset":3640,
			"target":34962
		},
		{
			"buffer":0,
			"byteLength":232,
			"byteOffset":3872,
			"target":34962
		},
		{
			"buffer":0,
			"byteLength":232,
			"byteOffset":4104,
			"target":34962
		},
		{
			"buffer":0,
			"byteLength":232,
			"byteOffset":4336,
			"target":34962
		},
		{
			"buffer":0,
			"byteLength":102,
			"byteOffset":4568,
			"target":34963
		},
		{
			"buffer":0,
			"byteLength":528,
			"byteOffset":4672,
			"target":34962
		},
		{
			"buffer":0,
			"byteLength":528,
			"byteOffset":5200,
			"target":34962
		},
		{
			"buffer":0,
			"byteLength":352,
			"byteOffset":5728,
			"target":34962
		},
		{
			"buffer":0,
			"byteLength":352,
			"byteOffset":6080,
			"target":34962
		},
		{
			"buffer":0,
			"byteLength":352,
			"byteOffset":6432,
			"target":34962
		},
		{
			"buffer":0,
			"byteLength":352,
			"byteOffset":6784,
			"target":34962
		},
		{
			"buffer":0,
			"byteLength":352,
			"byteOffset":7136,
			"target":34962
		},
		{
			"buffer":0,
			"byteLength":156,
			"byteOffset":7488,
			"target":34963
		}
	],
	"buffers":[
		{
			"byteLength":7644,
			"uri":"Wall_1_Triangle-740a598e9a30734dbf2456db22b53cfe.bin"
		}
	]
}
