{
	"asset":{
		"generator":"Khronos glTF Blender I/O v4.4.56",
		"version":"2.0"
	},
	"extensionsUsed":[
		"KHR_materials_transmission"
	],
	"scene":0,
	"scenes":[
		{
			"extras":{
				"blenderkitUI":{
					"assetbar_on":0,
					"turn_off":0
				},
				"blenderkit_models":{},
				"uuid":"158a3ae3-c349-4120-a1f0-ddae3cdea88e",
				"assets reported":{},
				"dream_textures_prompt":{},
				"ypui":{
					"expand_channels":0,
					"expand_mask_channels":0,
					"show_bake_targets":0,
					"show_channels":1,
					"show_layers":1,
					"show_materials":0,
					"show_object":0,
					"show_stats":0,
					"show_support":0,
					"show_test":0,
					"tree_name":""
				}
			},
			"name":"Scene",
			"nodes":[
				0
			]
		}
	],
	"nodes":[
		{
			"mesh":0,
			"name":"Wall_1_Window"
		}
	],
	"materials":[
		{
			"doubleSided":true,
			"extras":{
				"yp":{
					"active_ypaint_node":""
				}
			},
			"name":"Window",
			"pbrMetallicRoughness":{
				"baseColorFactor":[
					0.5,
					0.5,
					0.5,
					1
				],
				"metallicFactor":0,
				"roughnessFactor":0.5
			}
		},
		{
			"alphaMode":"BLEND",
			"doubleSided":true,
			"extensions":{
				"KHR_materials_transmission":{
					"transmissionFactor":1
				}
			},
			"extras":{
				"yp":{
					"active_ypaint_node":""
				}
			},
			"name":"Glass",
			"pbrMetallicRoughness":{
				"baseColorFactor":[
					0.36528629064559937,
					0.43260639905929565,
					0.5,
					0.4272727370262146
				],
				"metallicFactor":0,
				"roughnessFactor":0.10000000149011612
			}
		},
		{
			"doubleSided":true,
			"extras":{
				"yp":{
					"active_ypaint_node":""
				}
			},
			"name":"Wall",
			"pbrMetallicRoughness":{
				"baseColorFactor":[
					0.5149139165878296,
					0.6172071695327759,
					0.7991032004356384,
					1
				],
				"metallicFactor":0,
				"roughnessFactor":0.5
			}
		},
		{
			"doubleSided":true,
			"extras":{
				"yp":{
					"active_ypaint_node":""
				}
			},
			"name":"Baseboard",
			"pbrMetallicRoughness":{
				"baseColorFactor":[
					0.800000011920929,
					0.800000011920929,
					0.800000011920929,
					1
				],
				"metallicFactor":0,
				"roughnessFactor":0.5
			}
		},
		{
			"doubleSided":true,
			"extras":{
				"yp":{
					"active_ypaint_node":""
				}
			},
			"name":"Wall_Ext",
			"pbrMetallicRoughness":{
				"baseColorFactor":[
					0.800000011920929,
					0.800000011920929,
					0.800000011920929,
					1
				],
				"metallicFactor":0,
				"roughnessFactor":0.5
			}
		}
	],
	"meshes":[
		{
			"name":"Cube.002",
			"primitives":[
				{
					"attributes":{
						"POSITION":0,
						"NORMAL":1,
						"TEXCOORD_0":2,
						"TEXCOORD_1":3,
						"TEXCOORD_2":4,
						"TEXCOORD_3":5,
						"TEXCOORD_4":6
					},
					"indices":7,
					"material":0
				},
				{
					"attributes":{
						"POSITION":8,
						"NORMAL":9,
						"TEXCOORD_0":10,
						"TEXCOORD_1":11,
						"TEXCOORD_2":12,
						"TEXCOORD_3":13,
						"TEXCOORD_4":14
					},
					"indices":15,
					"material":1
				},
				{
					"attributes":{
						"POSITION":16,
						"NORMAL":17,
						"TEXCOORD_0":18,
						"TEXCOORD_1":19,
						"TEXCOORD_2":20,
						"TEXCOORD_3":21,
						"TEXCOORD_4":22
					},
					"indices":23,
					"material":2
				},
				{
					"attributes":{
						"POSITION":24,
						"NORMAL":25,
						"TEXCOORD_0":26,
						"TEXCOORD_1":27,
						"TEXCOORD_2":28,
						"TEXCOORD_3":29,
						"TEXCOORD_4":30
					},
					"indices":31,
					"material":3
				},
				{
					"attributes":{
						"POSITION":32,
						"NORMAL":33,
						"TEXCOORD_0":34,
						"TEXCOORD_1":35,
						"TEXCOORD_2":36,
						"TEXCOORD_3":37,
						"TEXCOORD_4":38
					},
					"indices":39,
					"material":4
				}
			]
		}
	],
	"accessors":[
		{
			"bufferView":0,
			"componentType":5126,
			"count":8300,
			"max":[
				0.1303965002298355,
				2.0617949962615967,
				0.5303562879562378
			],
			"min":[
				-0.09724509716033936,
				0.50779128074646,
				-0.5181883573532104
			],
			"type":"VEC3"
		},
		{
			"bufferView":1,
			"componentType":5126,
			"count":8300,
			"type":"VEC3"
		},
		{
			"bufferView":2,
			"componentType":5126,
			"count":8300,
			"type":"VEC2"
		},
		{
			"bufferView":3,
			"componentType":5126,
			"count":8300,
			"type":"VEC2"
		},
		{
			"bufferView":4,
			"componentType":5126,
			"count":8300,
			"type":"VEC2"
		},
		{
			"bufferView":5,
			"componentType":5126,
			"count":8300,
			"type":"VEC2"
		},
		{
			"bufferView":6,
			"componentType":5126,
			"count":8300,
			"type":"VEC2"
		},
		{
			"bufferView":7,
			"componentType":5123,
			"count":19764,
			"type":"SCALAR"
		},
		{
			"bufferView":8,
			"componentType":5126,
			"count":8,
			"max":[
				0.0472773015499115,
				1.9236469268798828,
				0.3002343773841858
			],
			"min":[
				0.01564186066389084,
				0.6684478521347046,
				-0.29130521416664124
			],
			"type":"VEC3"
		},
		{
			"bufferView":9,
			"componentType":5126,
			"count":8,
			"type":"VEC3"
		},
		{
			"bufferView":10,
			"componentType":5126,
			"count":8,
			"type":"VEC2"
		},
		{
			"bufferView":11,
			"componentType":5126,
			"count":8,
			"type":"VEC2"
		},
		{
			"bufferView":12,
			"componentType":5126,
			"count":8,
			"type":"VEC2"
		},
		{
			"bufferView":13,
			"componentType":5126,
			"count":8,
			"type":"VEC2"
		},
		{
			"bufferView":14,
			"componentType":5126,
			"count":8,
			"type":"VEC2"
		},
		{
			"bufferView":15,
			"componentType":5123,
			"count":12,
			"type":"SCALAR"
		},
		{
			"bufferView":16,
			"componentType":5126,
			"count":76,
			"max":[
				0.07500000298023224,
				2.5500001907348633,
				0.574999988079071
			],
			"min":[
				-0.07500000298023224,
				-3.427267074584961e-07,
				-0.574999988079071
			],
			"type":"VEC3"
		},
		{
			"bufferView":17,
			"componentType":5126,
			"count":76,
			"type":"VEC3"
		},
		{
			"bufferView":18,
			"componentType":5126,
			"count":76,
			"type":"VEC2"
		},
		{
			"bufferView":19,
			"componentType":5126,
			"count":76,
			"type":"VEC2"
		},
		{
			"bufferView":20,
			"componentType":5126,
			"count":76,
			"type":"VEC2"
		},
		{
			"bufferView":21,
			"componentType":5126,
			"count":76,
			"type":"VEC2"
		},
		{
			"bufferView":22,
			"componentType":5126,
			"count":76,
			"type":"VEC2"
		},
		{
			"bufferView":23,
			"componentType":5123,
			"count":132,
			"type":"SCALAR"
		},
		{
			"bufferView":24,
			"componentType":5126,
			"count":90,
			"max":[
				-0.07506400346755981,
				0.14993739128112793,
				0.574999988079071
			],
			"min":[
				-0.10506409406661987,
				0,
				-0.574999988079071
			],
			"type":"VEC3"
		},
		{
			"bufferView":25,
			"componentType":5126,
			"count":90,
			"type":"VEC3"
		},
		{
			"bufferView":26,
			"componentType":5126,
			"count":90,
			"type":"VEC2"
		},
		{
			"bufferView":27,
			"componentType":5126,
			"count":90,
			"type":"VEC2"
		},
		{
			"bufferView":28,
			"componentType":5126,
			"count":90,
			"type":"VEC2"
		},
		{
			"bufferView":29,
			"componentType":5126,
			"count":90,
			"type":"VEC2"
		},
		{
			"bufferView":30,
			"componentType":5126,
			"count":90,
			"type":"VEC2"
		},
		{
			"bufferView":31,
			"componentType":5123,
			"count":210,
			"type":"SCALAR"
		},
		{
			"bufferView":32,
			"componentType":5126,
			"count":52,
			"max":[
				0.07500000298023224,
				2.5500001907348633,
				0.574999988079071
			],
			"min":[
				-0.07500000298023224,
				-3.5762786865234375e-07,
				-0.574999988079071
			],
			"type":"VEC3"
		},
		{
			"bufferView":33,
			"componentType":5126,
			"count":52,
			"type":"VEC3"
		},
		{
			"bufferView":34,
			"componentType":5126,
			"count":52,
			"type":"VEC2"
		},
		{
			"bufferView":35,
			"componentType":5126,
			"count":52,
			"type":"VEC2"
		},
		{
			"bufferView":36,
			"componentType":5126,
			"count":52,
			"type":"VEC2"
		},
		{
			"bufferView":37,
			"componentType":5126,
			"count":52,
			"type":"VEC2"
		},
		{
			"bufferView":38,
			"componentType":5126,
			"count":52,
			"type":"VEC2"
		},
		{
			"bufferView":39,
			"componentType":5123,
			"count":102,
			"type":"SCALAR"
		}
	],
	"bufferViews":[
		{
			"buffer":0,
			"byteLength":99600,
			"byteOffset":0,
			"target":34962
		},
		{
			"buffer":0,
			"byteLength":99600,
			"byteOffset":99600,
			"target":34962
		},
		{
			"buffer":0,
			"byteLength":66400,
			"byteOffset":199200,
			"target":34962
		},
		{
			"buffer":0,
			"byteLength":66400,
			"byteOffset":265600,
			"target":34962
		},
		{
			"buffer":0,
			"byteLength":66400,
			"byteOffset":332000,
			"target":34962
		},
		{
			"buffer":0,
			"byteLength":66400,
			"byteOffset":398400,
			"target":34962
		},
		{
			"buffer":0,
			"byteLength":66400,
			"byteOffset":464800,
			"target":34962
		},
		{
			"buffer":0,
			"byteLength":39528,
			"byteOffset":531200,
			"target":34963
		},
		{
			"buffer":0,
			"byteLength":96,
			"byteOffset":570728,
			"target":34962
		},
		{
			"buffer":0,
			"byteLength":96,
			"byteOffset":570824,
			"target":34962
		},
		{
			"buffer":0,
			"byteLength":64,
			"byteOffset":570920,
			"target":34962
		},
		{
			"buffer":0,
			"byteLength":64,
			"byteOffset":570984,
			"target":34962
		},
		{
			"buffer":0,
			"byteLength":64,
			"byteOffset":571048,
			"target":34962
		},
		{
			"buffer":0,
			"byteLength":64,
			"byteOffset":571112,
			"target":34962
		},
		{
			"buffer":0,
			"byteLength":64,
			"byteOffset":571176,
			"target":34962
		},
		{
			"buffer":0,
			"byteLength":24,
			"byteOffset":571240,
			"target":34963
		},
		{
			"buffer":0,
			"byteLength":912,
			"byteOffset":571264,
			"target":34962
		},
		{
			"buffer":0,
			"byteLength":912,
			"byteOffset":572176,
			"target":34962
		},
		{
			"buffer":0,
			"byteLength":608,
			"byteOffset":573088,
			"target":34962
		},
		{
			"buffer":0,
			"byteLength":608,
			"byteOffset":573696,
			"target":34962
		},
		{
			"buffer":0,
			"byteLength":608,
			"byteOffset":574304,
			"target":34962
		},
		{
			"buffer":0,
			"byteLength":608,
			"byteOffset":574912,
			"target":34962
		},
		{
			"buffer":0,
			"byteLength":608,
			"byteOffset":575520,
			"target":34962
		},
		{
			"buffer":0,
			"byteLength":264,
			"byteOffset":576128,
			"target":34963
		},
		{
			"buffer":0,
			"byteLength":1080,
			"byteOffset":576392,
			"target":34962
		},
		{
			"buffer":0,
			"byteLength":1080,
			"byteOffset":577472,
			"target":34962
		},
		{
			"buffer":0,
			"byteLength":720,
			"byteOffset":578552,
			"target":34962
		},
		{
			"buffer":0,
			"byteLength":720,
			"byteOffset":579272,
			"target":34962
		},
		{
			"buffer":0,
			"byteLength":720,
			"byteOffset":579992,
			"target":34962
		},
		{
			"buffer":0,
			"byteLength":720,
			"byteOffset":580712,
			"target":34962
		},
		{
			"buffer":0,
			"byteLength":720,
			"byteOffset":581432,
			"target":34962
		},
		{
			"buffer":0,
			"byteLength":420,
			"byteOffset":582152,
			"target":34963
		},
		{
			"buffer":0,
			"byteLength":624,
			"byteOffset":582572,
			"target":34962
		},
		{
			"buffer":0,
			"byteLength":624,
			"byteOffset":583196,
			"target":34962
		},
		{
			"buffer":0,
			"byteLength":416,
			"byteOffset":583820,
			"target":34962
		},
		{
			"buffer":0,
			"byteLength":416,
			"byteOffset":584236,
			"target":34962
		},
		{
			"buffer":0,
			"byteLength":416,
			"byteOffset":584652,
			"target":34962
		},
		{
			"buffer":0,
			"byteLength":416,
			"byteOffset":585068,
			"target":34962
		},
		{
			"buffer":0,
			"byteLength":416,
			"byteOffset":585484,
			"target":34962
		},
		{
			"buffer":0,
			"byteLength":204,
			"byteOffset":585900,
			"target":34963
		}
	],
	"buffers":[
		{
			"byteLength":586104,
			"uri":"Wall_1_Window-4d34cfecd0a9d4ffeccbc5558895151b.bin"
		}
	]
}
