{
	"asset":{
		"generator":"Khronos glTF Blender I/O v4.4.56",
		"version":"2.0"
	},
	"scene":0,
	"scenes":[
		{
			"extras":{
				"blenderkitUI":{
					"assetbar_on":0,
					"turn_off":0
				},
				"blenderkit_models":{},
				"uuid":"158a3ae3-c349-4120-a1f0-ddae3cdea88e",
				"assets reported":{},
				"dream_textures_prompt":{},
				"ypui":{
					"expand_channels":0,
					"expand_mask_channels":0,
					"show_bake_targets":0,
					"show_channels":1,
					"show_layers":1,
					"show_materials":0,
					"show_object":0,
					"show_stats":0,
					"show_support":0,
					"show_test":0,
					"tree_name":""
				}
			},
			"name":"Scene",
			"nodes":[
				0
			]
		}
	],
	"nodes":[
		{
			"mesh":0,
			"name":"Wall_1"
		}
	],
	"materials":[
		{
			"doubleSided":true,
			"extras":{
				"yp":{
					"active_ypaint_node":""
				}
			},
			"name":"Wall",
			"pbrMetallicRoughness":{
				"baseColorFactor":[
					0.5149139165878296,
					0.6172071695327759,
					0.7991032004356384,
					1
				],
				"metallicFactor":0,
				"roughnessFactor":0.5
			}
		},
		{
			"doubleSided":true,
			"extras":{
				"yp":{
					"active_ypaint_node":""
				}
			},
			"name":"Baseboard",
			"pbrMetallicRoughness":{
				"baseColorFactor":[
					0.800000011920929,
					0.800000011920929,
					0.800000011920929,
					1
				],
				"metallicFactor":0,
				"roughnessFactor":0.5
			}
		},
		{
			"doubleSided":true,
			"extras":{
				"yp":{
					"active_ypaint_node":""
				}
			},
			"name":"Wall_Ext",
			"pbrMetallicRoughness":{
				"baseColorFactor":[
					0.800000011920929,
					0.800000011920929,
					0.800000011920929,
					1
				],
				"metallicFactor":0,
				"roughnessFactor":0.5
			}
		}
	],
	"meshes":[
		{
			"name":"Cube.002",
			"primitives":[
				{
					"attributes":{
						"POSITION":0,
						"NORMAL":1,
						"TEXCOORD_0":2,
						"TEXCOORD_1":3,
						"TEXCOORD_2":4,
						"TEXCOORD_3":5,
						"TEXCOORD_4":6
					},
					"indices":7,
					"material":0
				},
				{
					"attributes":{
						"POSITION":8,
						"NORMAL":9,
						"TEXCOORD_0":10,
						"TEXCOORD_1":11,
						"TEXCOORD_2":12,
						"TEXCOORD_3":13,
						"TEXCOORD_4":14
					},
					"indices":15,
					"material":1
				},
				{
					"attributes":{
						"POSITION":16,
						"NORMAL":17,
						"TEXCOORD_0":18,
						"TEXCOORD_1":19,
						"TEXCOORD_2":20,
						"TEXCOORD_3":21,
						"TEXCOORD_4":22
					},
					"indices":23,
					"material":2
				}
			]
		}
	],
	"accessors":[
		{
			"bufferView":0,
			"componentType":5126,
			"count":56,
			"max":[
				0.07500000298023224,
				2.5500001907348633,
				0.574999988079071
			],
			"min":[
				-0.07500000298023224,
				-3.427267074584961e-07,
				-0.574999988079071
			],
			"type":"VEC3"
		},
		{
			"bufferView":1,
			"componentType":5126,
			"count":56,
			"type":"VEC3"
		},
		{
			"bufferView":2,
			"componentType":5126,
			"count":56,
			"type":"VEC2"
		},
		{
			"bufferView":3,
			"componentType":5126,
			"count":56,
			"type":"VEC2"
		},
		{
			"bufferView":4,
			"componentType":5126,
			"count":56,
			"type":"VEC2"
		},
		{
			"bufferView":5,
			"componentType":5126,
			"count":56,
			"type":"VEC2"
		},
		{
			"bufferView":6,
			"componentType":5126,
			"count":56,
			"type":"VEC2"
		},
		{
			"bufferView":7,
			"componentType":5123,
			"count":90,
			"type":"SCALAR"
		},
		{
			"bufferView":8,
			"componentType":5126,
			"count":90,
			"max":[
				-0.07506400346755981,
				0.14993739128112793,
				0.574999988079071
			],
			"min":[
				-0.10506409406661987,
				0,
				-0.574999988079071
			],
			"type":"VEC3"
		},
		{
			"bufferView":9,
			"componentType":5126,
			"count":90,
			"type":"VEC3"
		},
		{
			"bufferView":10,
			"componentType":5126,
			"count":90,
			"type":"VEC2"
		},
		{
			"bufferView":11,
			"componentType":5126,
			"count":90,
			"type":"VEC2"
		},
		{
			"bufferView":12,
			"componentType":5126,
			"count":90,
			"type":"VEC2"
		},
		{
			"bufferView":13,
			"componentType":5126,
			"count":90,
			"type":"VEC2"
		},
		{
			"bufferView":14,
			"componentType":5126,
			"count":90,
			"type":"VEC2"
		},
		{
			"bufferView":15,
			"componentType":5123,
			"count":210,
			"type":"SCALAR"
		},
		{
			"bufferView":16,
			"componentType":5126,
			"count":48,
			"max":[
				0.07500000298023224,
				2.5500001907348633,
				0.574999988079071
			],
			"min":[
				-0.07500000298023224,
				-3.5762786865234375e-07,
				-0.574999988079071
			],
			"type":"VEC3"
		},
		{
			"bufferView":17,
			"componentType":5126,
			"count":48,
			"type":"VEC3"
		},
		{
			"bufferView":18,
			"componentType":5126,
			"count":48,
			"type":"VEC2"
		},
		{
			"bufferView":19,
			"componentType":5126,
			"count":48,
			"type":"VEC2"
		},
		{
			"bufferView":20,
			"componentType":5126,
			"count":48,
			"type":"VEC2"
		},
		{
			"bufferView":21,
			"componentType":5126,
			"count":48,
			"type":"VEC2"
		},
		{
			"bufferView":22,
			"componentType":5126,
			"count":48,
			"type":"VEC2"
		},
		{
			"bufferView":23,
			"componentType":5123,
			"count":84,
			"type":"SCALAR"
		}
	],
	"bufferViews":[
		{
			"buffer":0,
			"byteLength":672,
			"byteOffset":0,
			"target":34962
		},
		{
			"buffer":0,
			"byteLength":672,
			"byteOffset":672,
			"target":34962
		},
		{
			"buffer":0,
			"byteLength":448,
			"byteOffset":1344,
			"target":34962
		},
		{
			"buffer":0,
			"byteLength":448,
			"byteOffset":1792,
			"target":34962
		},
		{
			"buffer":0,
			"byteLength":448,
			"byteOffset":2240,
			"target":34962
		},
		{
			"buffer":0,
			"byteLength":448,
			"byteOffset":2688,
			"target":34962
		},
		{
			"buffer":0,
			"byteLength":448,
			"byteOffset":3136,
			"target":34962
		},
		{
			"buffer":0,
			"byteLength":180,
			"byteOffset":3584,
			"target":34963
		},
		{
			"buffer":0,
			"byteLength":1080,
			"byteOffset":3764,
			"target":34962
		},
		{
			"buffer":0,
			"byteLength":1080,
			"byteOffset":4844,
			"target":34962
		},
		{
			"buffer":0,
			"byteLength":720,
			"byteOffset":5924,
			"target":34962
		},
		{
			"buffer":0,
			"byteLength":720,
			"byteOffset":6644,
			"target":34962
		},
		{
			"buffer":0,
			"byteLength":720,
			"byteOffset":7364,
			"target":34962
		},
		{
			"buffer":0,
			"byteLength":720,
			"byteOffset":8084,
			"target":34962
		},
		{
			"buffer":0,
			"byteLength":720,
			"byteOffset":8804,
			"target":34962
		},
		{
			"buffer":0,
			"byteLength":420,
			"byteOffset":9524,
			"target":34963
		},
		{
			"buffer":0,
			"byteLength":576,
			"byteOffset":9944,
			"target":34962
		},
		{
			"buffer":0,
			"byteLength":576,
			"byteOffset":10520,
			"target":34962
		},
		{
			"buffer":0,
			"byteLength":384,
			"byteOffset":11096,
			"target":34962
		},
		{
			"buffer":0,
			"byteLength":384,
			"byteOffset":11480,
			"target":34962
		},
		{
			"buffer":0,
			"byteLength":384,
			"byteOffset":11864,
			"target":34962
		},
		{
			"buffer":0,
			"byteLength":384,
			"byteOffset":12248,
			"target":34962
		},
		{
			"buffer":0,
			"byteLength":384,
			"byteOffset":12632,
			"target":34962
		},
		{
			"buffer":0,
			"byteLength":168,
			"byteOffset":13016,
			"target":34963
		}
	],
	"buffers":[
		{
			"byteLength":13184,
			"uri":"Wall_1-6333557665a12668c213bf1169ffc7b2.bin"
		}
	]
}
