{
	"asset":{
		"generator":"Khronos glTF Blender I/O v4.4.56",
		"version":"2.0"
	},
	"extensionsUsed":[
		"KHR_materials_specular"
	],
	"scene":0,
	"scenes":[
		{
			"extras":{
				"blenderkitUI":{
					"assetbar_on":0,
					"turn_off":0
				},
				"blenderkit_models":{},
				"uuid":"158a3ae3-c349-4120-a1f0-ddae3cdea88e",
				"assets reported":{},
				"dream_textures_prompt":{},
				"ypui":{
					"expand_channels":0,
					"expand_mask_channels":0,
					"show_bake_targets":0,
					"show_channels":1,
					"show_layers":1,
					"show_materials":0,
					"show_object":0,
					"show_stats":0,
					"show_support":0,
					"show_test":0,
					"tree_name":""
				}
			},
			"name":"Scene",
			"nodes":[
				0
			]
		}
	],
	"nodes":[
		{
			"mesh":0,
			"name":"Wall_1_Door"
		}
	],
	"materials":[
		{
			"doubleSided":true,
			"extras":{
				"yp":{
					"active_ypaint_node":""
				}
			},
			"name":"Wall",
			"pbrMetallicRoughness":{
				"baseColorFactor":[
					0.5149139165878296,
					0.6172071695327759,
					0.7991032004356384,
					1
				],
				"metallicFactor":0,
				"roughnessFactor":0.5
			}
		},
		{
			"doubleSided":true,
			"extras":{
				"yp":{
					"active_ypaint_node":""
				}
			},
			"name":"Baseboard",
			"pbrMetallicRoughness":{
				"baseColorFactor":[
					0.800000011920929,
					0.800000011920929,
					0.800000011920929,
					1
				],
				"metallicFactor":0,
				"roughnessFactor":0.5
			}
		},
		{
			"doubleSided":true,
			"extensions":{
				"KHR_materials_specular":{
					"specularFactor":0
				}
			},
			"extras":{
				"yp":{
					"active_ypaint_node":""
				}
			},
			"name":"Door",
			"pbrMetallicRoughness":{
				"baseColorFactor":[
					0.5302916765213013,
					0.8010168075561523,
					0.46878522634506226,
					1
				],
				"metallicFactor":0
			}
		},
		{
			"doubleSided":true,
			"extras":{
				"yp":{
					"active_ypaint_node":""
				}
			},
			"name":"Wall_Ext",
			"pbrMetallicRoughness":{
				"baseColorFactor":[
					0.800000011920929,
					0.800000011920929,
					0.800000011920929,
					1
				],
				"metallicFactor":0,
				"roughnessFactor":0.5
			}
		}
	],
	"meshes":[
		{
			"name":"Cube.006",
			"primitives":[
				{
					"attributes":{
						"POSITION":0,
						"NORMAL":1,
						"TEXCOORD_0":2,
						"TEXCOORD_1":3,
						"TEXCOORD_2":4,
						"TEXCOORD_3":5,
						"TEXCOORD_4":6
					},
					"indices":7,
					"material":0
				},
				{
					"attributes":{
						"POSITION":8,
						"NORMAL":9,
						"TEXCOORD_0":10,
						"TEXCOORD_1":11,
						"TEXCOORD_2":12,
						"TEXCOORD_3":13,
						"TEXCOORD_4":14
					},
					"indices":15,
					"material":1
				},
				{
					"attributes":{
						"POSITION":16,
						"NORMAL":17,
						"TEXCOORD_0":18,
						"TEXCOORD_1":19,
						"TEXCOORD_2":20,
						"TEXCOORD_3":21,
						"TEXCOORD_4":22
					},
					"indices":23,
					"material":2
				},
				{
					"attributes":{
						"POSITION":24,
						"NORMAL":25,
						"TEXCOORD_0":26,
						"TEXCOORD_1":27,
						"TEXCOORD_2":28,
						"TEXCOORD_3":29,
						"TEXCOORD_4":30
					},
					"indices":31,
					"material":3
				}
			]
		}
	],
	"accessors":[
		{
			"bufferView":0,
			"componentType":5126,
			"count":65,
			"max":[
				0.07500000298023224,
				2.5500001907348633,
				0.574999988079071
			],
			"min":[
				-0.07500000298023224,
				-3.427267074584961e-07,
				-0.574999988079071
			],
			"type":"VEC3"
		},
		{
			"bufferView":1,
			"componentType":5126,
			"count":65,
			"type":"VEC3"
		},
		{
			"bufferView":2,
			"componentType":5126,
			"count":65,
			"type":"VEC2"
		},
		{
			"bufferView":3,
			"componentType":5126,
			"count":65,
			"type":"VEC2"
		},
		{
			"bufferView":4,
			"componentType":5126,
			"count":65,
			"type":"VEC2"
		},
		{
			"bufferView":5,
			"componentType":5126,
			"count":65,
			"type":"VEC2"
		},
		{
			"bufferView":6,
			"componentType":5126,
			"count":65,
			"type":"VEC2"
		},
		{
			"bufferView":7,
			"componentType":5123,
			"count":105,
			"type":"SCALAR"
		},
		{
			"bufferView":8,
			"componentType":5126,
			"count":268,
			"max":[
				-0.07506400346755981,
				0.14993740618228912,
				0.574999988079071
			],
			"min":[
				-0.10506409406661987,
				0,
				-0.574999988079071
			],
			"type":"VEC3"
		},
		{
			"bufferView":9,
			"componentType":5126,
			"count":268,
			"type":"VEC3"
		},
		{
			"bufferView":10,
			"componentType":5126,
			"count":268,
			"type":"VEC2"
		},
		{
			"bufferView":11,
			"componentType":5126,
			"count":268,
			"type":"VEC2"
		},
		{
			"bufferView":12,
			"componentType":5126,
			"count":268,
			"type":"VEC2"
		},
		{
			"bufferView":13,
			"componentType":5126,
			"count":268,
			"type":"VEC2"
		},
		{
			"bufferView":14,
			"componentType":5126,
			"count":268,
			"type":"VEC2"
		},
		{
			"bufferView":15,
			"componentType":5123,
			"count":612,
			"type":"SCALAR"
		},
		{
			"bufferView":16,
			"componentType":5126,
			"count":3305,
			"max":[
				0.16294384002685547,
				2.079474687576294,
				0.49533504247665405
			],
			"min":[
				-0.09283555299043655,
				-0.0015275178011506796,
				-0.49533966183662415
			],
			"type":"VEC3"
		},
		{
			"bufferView":17,
			"componentType":5126,
			"count":3305,
			"type":"VEC3"
		},
		{
			"bufferView":18,
			"componentType":5126,
			"count":3305,
			"type":"VEC2"
		},
		{
			"bufferView":19,
			"componentType":5126,
			"count":3305,
			"type":"VEC2"
		},
		{
			"bufferView":20,
			"componentType":5126,
			"count":3305,
			"type":"VEC2"
		},
		{
			"bufferView":21,
			"componentType":5126,
			"count":3305,
			"type":"VEC2"
		},
		{
			"bufferView":22,
			"componentType":5126,
			"count":3305,
			"type":"VEC2"
		},
		{
			"bufferView":23,
			"componentType":5123,
			"count":12852,
			"type":"SCALAR"
		},
		{
			"bufferView":24,
			"componentType":5126,
			"count":79,
			"max":[
				0.07500000298023224,
				2.5500001907348633,
				0.574999988079071
			],
			"min":[
				-0.07500000298023224,
				-3.5762786865234375e-07,
				-0.574999988079071
			],
			"type":"VEC3"
		},
		{
			"bufferView":25,
			"componentType":5126,
			"count":79,
			"type":"VEC3"
		},
		{
			"bufferView":26,
			"componentType":5126,
			"count":79,
			"type":"VEC2"
		},
		{
			"bufferView":27,
			"componentType":5126,
			"count":79,
			"type":"VEC2"
		},
		{
			"bufferView":28,
			"componentType":5126,
			"count":79,
			"type":"VEC2"
		},
		{
			"bufferView":29,
			"componentType":5126,
			"count":79,
			"type":"VEC2"
		},
		{
			"bufferView":30,
			"componentType":5126,
			"count":79,
			"type":"VEC2"
		},
		{
			"bufferView":31,
			"componentType":5123,
			"count":135,
			"type":"SCALAR"
		}
	],
	"bufferViews":[
		{
			"buffer":0,
			"byteLength":780,
			"byteOffset":0,
			"target":34962
		},
		{
			"buffer":0,
			"byteLength":780,
			"byteOffset":780,
			"target":34962
		},
		{
			"buffer":0,
			"byteLength":520,
			"byteOffset":1560,
			"target":34962
		},
		{
			"buffer":0,
			"byteLength":520,
			"byteOffset":2080,
			"target":34962
		},
		{
			"buffer":0,
			"byteLength":520,
			"byteOffset":2600,
			"target":34962
		},
		{
			"buffer":0,
			"byteLength":520,
			"byteOffset":3120,
			"target":34962
		},
		{
			"buffer":0,
			"byteLength":520,
			"byteOffset":3640,
			"target":34962
		},
		{
			"buffer":0,
			"byteLength":210,
			"byteOffset":4160,
			"target":34963
		},
		{
			"buffer":0,
			"byteLength":3216,
			"byteOffset":4372,
			"target":34962
		},
		{
			"buffer":0,
			"byteLength":3216,
			"byteOffset":7588,
			"target":34962
		},
		{
			"buffer":0,
			"byteLength":2144,
			"byteOffset":10804,
			"target":34962
		},
		{
			"buffer":0,
			"byteLength":2144,
			"byteOffset":12948,
			"target":34962
		},
		{
			"buffer":0,
			"byteLength":2144,
			"byteOffset":15092,
			"target":34962
		},
		{
			"buffer":0,
			"byteLength":2144,
			"byteOffset":17236,
			"target":34962
		},
		{
			"buffer":0,
			"byteLength":2144,
			"byteOffset":19380,
			"target":34962
		},
		{
			"buffer":0,
			"byteLength":1224,
			"byteOffset":21524,
			"target":34963
		},
		{
			"buffer":0,
			"byteLength":39660,
			"byteOffset":22748,
			"target":34962
		},
		{
			"buffer":0,
			"byteLength":39660,
			"byteOffset":62408,
			"target":34962
		},
		{
			"buffer":0,
			"byteLength":26440,
			"byteOffset":102068,
			"target":34962
		},
		{
			"buffer":0,
			"byteLength":26440,
			"byteOffset":128508,
			"target":34962
		},
		{
			"buffer":0,
			"byteLength":26440,
			"byteOffset":154948,
			"target":34962
		},
		{
			"buffer":0,
			"byteLength":26440,
			"byteOffset":181388,
			"target":34962
		},
		{
			"buffer":0,
			"byteLength":26440,
			"byteOffset":207828,
			"target":34962
		},
		{
			"buffer":0,
			"byteLength":25704,
			"byteOffset":234268,
			"target":34963
		},
		{
			"buffer":0,
			"byteLength":948,
			"byteOffset":259972,
			"target":34962
		},
		{
			"buffer":0,
			"byteLength":948,
			"byteOffset":260920,
			"target":34962
		},
		{
			"buffer":0,
			"byteLength":632,
			"byteOffset":261868,
			"target":34962
		},
		{
			"buffer":0,
			"byteLength":632,
			"byteOffset":262500,
			"target":34962
		},
		{
			"buffer":0,
			"byteLength":632,
			"byteOffset":263132,
			"target":34962
		},
		{
			"buffer":0,
			"byteLength":632,
			"byteOffset":263764,
			"target":34962
		},
		{
			"buffer":0,
			"byteLength":632,
			"byteOffset":264396,
			"target":34962
		},
		{
			"buffer":0,
			"byteLength":270,
			"byteOffset":265028,
			"target":34963
		}
	],
	"buffers":[
		{
			"byteLength":265300,
			"uri":"Wall_1_Door-8eede90702ddf56816a460d36bb91ad6.bin"
		}
	]
}
