{
	"asset":{
		"generator":"Khronos glTF Blender I/O v4.4.56",
		"version":"2.0"
	},
	"scene":0,
	"scenes":[
		{
			"extras":{
				"blenderkitUI":{
					"assetbar_on":0,
					"turn_off":0
				},
				"blenderkit_models":{},
				"uuid":"158a3ae3-c349-4120-a1f0-ddae3cdea88e",
				"assets reported":{},
				"dream_textures_prompt":{},
				"ypui":{
					"expand_channels":0,
					"expand_mask_channels":0,
					"show_bake_targets":0,
					"show_channels":1,
					"show_layers":1,
					"show_materials":0,
					"show_object":0,
					"show_stats":0,
					"show_support":0,
					"show_test":0,
					"tree_name":""
				}
			},
			"name":"Scene",
			"nodes":[
				0
			]
		}
	],
	"nodes":[
		{
			"mesh":0,
			"name":"Washer"
		}
	],
	"materials":[
		{
			"doubleSided":true,
			"extras":{
				"yp":{
					"active_ypaint_node":""
				}
			},
			"name":"Washer_Dryer",
			"pbrMetallicRoughness":{
				"baseColorFactor":[
					0.800000011920929,
					0.800000011920929,
					0.800000011920929,
					1
				],
				"metallicFactor":0,
				"roughnessFactor":0.5
			}
		}
	],
	"meshes":[
		{
			"name":"Cube.005",
			"primitives":[
				{
					"attributes":{
						"POSITION":0,
						"NORMAL":1,
						"TEXCOORD_0":2,
						"TANGENT":3
					},
					"indices":4,
					"material":0
				}
			]
		}
	],
	"accessors":[
		{
			"bufferView":0,
			"componentType":5126,
			"count":5217,
			"max":[
				0.30659136176109314,
				0.9742216467857361,
				0.4807552099227905
			],
			"min":[
				-0.3065912425518036,
				5.472740303957835e-05,
				-0.12719377875328064
			],
			"type":"VEC3"
		},
		{
			"bufferView":1,
			"componentType":5126,
			"count":5217,
			"type":"VEC3"
		},
		{
			"bufferView":2,
			"componentType":5126,
			"count":5217,
			"type":"VEC2"
		},
		{
			"bufferView":3,
			"componentType":5126,
			"count":5217,
			"type":"VEC4"
		},
		{
			"bufferView":4,
			"componentType":5123,
			"count":22632,
			"type":"SCALAR"
		}
	],
	"bufferViews":[
		{
			"buffer":0,
			"byteLength":62604,
			"byteOffset":0,
			"target":34962
		},
		{
			"buffer":0,
			"byteLength":62604,
			"byteOffset":62604,
			"target":34962
		},
		{
			"buffer":0,
			"byteLength":41736,
			"byteOffset":125208,
			"target":34962
		},
		{
			"buffer":0,
			"byteLength":83472,
			"byteOffset":166944,
			"target":34962
		},
		{
			"buffer":0,
			"byteLength":45264,
			"byteOffset":250416,
			"target":34963
		}
	],
	"buffers":[
		{
			"byteLength":295680,
			"uri":"Washer_Dryer-afb6b68e716da7f402153a3c86e72975.bin"
		}
	]
}
